<?xml version="1.0" encoding="utf-8"?>
<!-- Generator: Adobe Illustrator 22.1.0, SVG Export Plug-In . SVG Version: 6.00 Build 0)  -->
<svg version="1.1" id="Réteg_1" xmlns="http://www.w3.org/2000/svg" xmlns:xlink="http://www.w3.org/1999/xlink" x="0px" y="0px"
	 viewBox="0 0 64 64" style="enable-background:new 0 0 64 64;" xml:space="preserve">
<g>
	<polygon points="37.3,30.8 26.7,30.8 26.7,45.1 16.2,45.1 32,60.4 47.8,45.1 37.3,45.1 	"/>
	<path d="M51.8,16.8c-0.3,0-0.6,0-0.9,0.1c-3.2-3.9-7.8-6.1-12.8-6.1c-1.2,0-2.5,0.2-3.8,0.5C32.5,6.7,28,3.6,23,3.6
		c-6.7,0-12.2,5.5-12.2,12.2c0,0.4,0,0.7,0.1,1.1C4.8,17.6,0,22.8,0,29c0,6.7,5.5,12.2,12.2,12.2c0.8,0,1.4-0.6,1.4-1.4
		c0-0.8-0.6-1.4-1.4-1.4c-5.2,0-9.3-4.2-9.3-9.4c0-5.2,4.2-9.3,9.3-9.3c0,0,0,0,0,0l2.2,0.1l-0.4-1.8c-0.2-0.8-0.3-1.5-0.3-2.2
		c0-5.2,4.2-9.3,9.3-9.3c4.2,0,7.9,2.9,9,7l0.4,1.5l1.5-0.5c1.5-0.5,2.9-0.8,4.3-0.8c4.4,0,8.3,2,11,5.6l0.6,0.7l0.9-0.1
		c0.4-0.1,0.8-0.1,1.2-0.1c5.2,0,9.3,4.2,9.3,9.3c0,5.2-4.2,9.4-9.3,9.4c-0.8,0-1.4,0.6-1.4,1.4c0,0.8,0.6,1.4,1.4,1.4
		C58.5,41.3,64,35.8,64,29C64,22.3,58.5,16.8,51.8,16.8z"/>
</g>
</svg>
