<?xml version="1.0" encoding="utf-8"?>
<!-- Generator: Adobe Illustrator 19.0.0, SVG Export Plug-In . SVG Version: 6.00 Build 0)  -->
<svg version="1.1" id="Réteg_1" xmlns="http://www.w3.org/2000/svg" xmlns:xlink="http://www.w3.org/1999/xlink" x="0px" y="0px"
	 viewBox="0 0 64 64" enable-background="new 0 0 64 64" xml:space="preserve">
<path id="XMLID_12_" d="M32,0C14.4,0,0,14.4,0,32s14.4,32,32,32c17.6,0,32-14.4,32-32S49.6,0,32,0z M60.9,30.5H50.6
	C50.3,19.5,47,10.2,42,4.9C52.6,8.8,60.3,18.7,60.9,30.5z M30.5,3.2v27.3H16.4C16.8,16.4,23,4.6,30.5,3.2z M30.5,33.5v27.3
	C23,59.4,16.8,47.6,16.4,33.5H30.5z M33.5,60.8V33.5h14.1C47.2,47.6,41,59.4,33.5,60.8z M33.5,30.5V3.2C41,4.6,47.2,16.4,47.6,30.5
	H33.5z M22,4.9c-5,5.4-8.3,14.7-8.6,25.6H3.1C3.7,18.7,11.4,8.8,22,4.9z M3.1,33.5h10.3C13.7,44.5,17,53.8,22,59.1
	C11.4,55.2,3.7,45.3,3.1,33.5z M42,59.1c5-5.4,8.3-14.7,8.6-25.6h10.3C60.3,45.3,52.6,55.2,42,59.1z"/>
</svg>
