<?xml version="1.0" encoding="utf-8"?>
<!-- Generator: Adobe Illustrator 22.1.0, SVG Export Plug-In . SVG Version: 6.00 Build 0)  -->
<svg version="1.1" id="Réteg_1" xmlns="http://www.w3.org/2000/svg" xmlns:xlink="http://www.w3.org/1999/xlink" x="0px" y="0px"
	 viewBox="0 0 64 64" style="enable-background:new 0 0 64 64;" xml:space="preserve">
<g>
	<polygon points="49.5,26.2 46.5,26.2 43.6,26.2 40.7,26.2 37.8,26.2 34.9,26.2 34.9,23.3 37.8,23.3 37.8,20.4 37.8,17.5 37.8,14.5 
		40.7,14.5 40.7,11.6 40.7,8.7 43.6,8.7 43.6,5.8 43.6,2.9 46.5,2.9 46.5,0 43.6,0 40.7,0 37.8,0 34.9,0 32,0 29.1,0 26.2,0 23.3,0 
		20.4,0 20.4,2.9 20.4,5.8 20.4,8.7 20.4,11.6 17.5,11.6 17.5,14.5 17.5,17.5 17.5,20.4 14.5,20.4 14.5,23.3 14.5,26.2 14.5,29.1 
		14.5,32 11.6,32 11.6,34.9 11.6,37.8 14.5,37.8 17.5,37.8 20.4,37.8 23.3,37.8 26.2,37.8 29.1,37.8 32,37.8 32,40.7 29.1,40.7 
		29.1,43.6 29.1,46.5 29.1,49.5 26.2,49.5 26.2,52.4 26.2,55.3 26.2,58.2 29.1,58.2 29.1,55.3 32,55.3 32,52.4 34.9,52.4 34.9,49.5 
		34.9,46.5 37.8,46.5 37.8,43.6 40.7,43.6 40.7,40.7 43.6,40.7 43.6,37.8 43.6,34.9 46.5,34.9 46.5,32 49.5,32 49.5,29.1 52.4,29.1 
		52.4,26.2 	"/>
	<rect x="23.3" y="61.1" width="2.9" height="2.9"/>
</g>
</svg>
