<?xml version="1.0" encoding="utf-8"?>
<!-- Generator: Adobe Illustrator 22.1.0, SVG Export Plug-In . SVG Version: 6.00 Build 0)  -->
<svg version="1.1" id="Réteg_1" xmlns="http://www.w3.org/2000/svg" xmlns:xlink="http://www.w3.org/1999/xlink" x="0px" y="0px"
	 viewBox="0 0 64 64" style="enable-background:new 0 0 64 64;" xml:space="preserve">
<path d="M58.2,51.9L46.5,40.2c2.2-3.2,3.5-7.1,3.5-11.3c0-11.1-9-20.1-20.1-20.1c-11.1,0-20.1,9-20.1,20.1c0,11.1,9,20.1,20.1,20.1
	c4.2,0,8.1-1.3,11.3-3.5l11.7,11.7L58.2,51.9z M17.3,28.9c0-6.9,5.7-12.6,12.6-12.6c6.9,0,12.6,5.7,12.6,12.6
	c0,6.9-5.7,12.6-12.6,12.6C22.9,41.5,17.3,35.8,17.3,28.9z"/>
</svg>
