<?xml version="1.0" encoding="utf-8"?>
<!-- Generator: Adobe Illustrator 22.1.0, SVG Export Plug-In . SVG Version: 6.00 Build 0)  -->
<svg version="1.1" id="Réteg_1" xmlns="http://www.w3.org/2000/svg" xmlns:xlink="http://www.w3.org/1999/xlink" x="0px" y="0px"
	 viewBox="0 0 64 64" style="enable-background:new 0 0 64 64;" xml:space="preserve">
<g>
	<g>
		<g>
			<path d="M51.8,41.3c-0.8,0-1.4-0.6-1.4-1.4s0.6-1.4,1.4-1.4c5.2,0,9.3-4.2,9.3-9.3s-4.2-9.3-9.3-9.3c-0.4,0-0.8,0.1-1.2,0.1
				l-0.9,0.1L49,19.4c-2.6-3.6-6.6-5.6-11-5.6c-1.3,0-2.7,0.2-4.3,0.8l-1.5,0.5L32,13.5c-1.1-4.1-4.8-7-9-7c-5.2,0-9.3,4.2-9.3,9.3
				c0,0.7,0.1,1.3,0.3,2.2l0.4,1.8l-2.2-0.1c-5.1,0-9.3,4.2-9.3,9.3s4.2,9.3,9.3,9.3c0.8,0,1.4,0.6,1.4,1.4s-0.6,1.4-1.4,1.4
				C5.5,41.3,0,35.8,0,29.1c0-6.3,4.8-11.5,10.8-12.2c0-0.4-0.1-0.7-0.1-1.1c0-6.7,5.5-12.2,12.2-12.2c5,0,9.5,3.1,11.3,7.7
				c1.3-0.3,2.6-0.5,3.8-0.5c5,0,9.6,2.2,12.8,6.1c0.3,0,0.6-0.1,0.9-0.1C58.5,16.9,64,22.3,64,29.1C64,35.8,58.5,41.3,51.8,41.3z"
				/>
		</g>
	</g>
	<polygon points="26.7,60.4 37.3,60.4 37.3,46 47.8,46 32,30.7 16.2,46 26.7,46 	"/>
</g>
</svg>
